<svg width="17" height="17" viewBox="0 0 17 17" fill="none" xmlns="http://www.w3.org/2000/svg">
<g clip-path="url(#clip0_3_8)">
<path d="M8.5 1.41667C4.59 1.41667 1.41667 4.59001 1.41667 8.50001C1.41667 12.41 4.59 15.5833 8.5 15.5833C12.41 15.5833 15.5833 12.41 15.5833 8.50001C15.5833 4.59001 12.41 1.41667 8.5 1.41667ZM8.5 14.1667C5.37625 14.1667 2.83333 11.6238 2.83333 8.50001C2.83333 5.37626 5.37625 2.83334 8.5 2.83334C11.6238 2.83334 14.1667 5.37626 14.1667 8.50001C14.1667 11.6238 11.6238 14.1667 8.5 14.1667ZM8.5 5.31251C6.73625 5.31251 5.3125 6.73626 5.3125 8.50001C5.3125 10.2638 6.73625 11.6875 8.5 11.6875C10.2638 11.6875 11.6875 10.2638 11.6875 8.50001C11.6875 6.73626 10.2638 5.31251 8.5 5.31251ZM8.5 9.20834C8.11042 9.20834 7.79167 8.88959 7.79167 8.50001C7.79167 8.11042 8.11042 7.79167 8.5 7.79167C8.88959 7.79167 9.20833 8.11042 9.20833 8.50001C9.20833 8.88959 8.88959 9.20834 8.5 9.20834Z" fill="#5E5E5E"/>
<circle cx="13.5" cy="4.5" r="2.5" fill="#19D179"/>
</g>
<defs>
<clipPath id="clip0_3_8">
<rect width="17" height="17" fill="white"/>
</clipPath>
</defs>
</svg>
