<svg width="17" height="19" viewBox="0 0 17 19" fill="none" xmlns="http://www.w3.org/2000/svg">
<g clip-path="url(#clip0_3_4)">
<path d="M6.37501 10.8854C4.71751 10.8854 1.41667 11.8117 1.41667 13.6562V15.0417H11.3333V13.6562C11.3333 11.8117 8.03251 10.8854 6.37501 10.8854ZM3.07417 13.4583C3.66917 12.9992 5.10709 12.4687 6.37501 12.4687C7.64292 12.4687 9.08084 12.9992 9.67584 13.4583H3.07417ZM6.37501 9.5C7.74209 9.5 8.85417 8.25708 8.85417 6.72916C8.85417 5.20124 7.74209 3.95833 6.37501 3.95833C5.00792 3.95833 3.89584 5.20124 3.89584 6.72916C3.89584 8.25708 5.00792 9.5 6.37501 9.5ZM6.37501 5.54166C6.96292 5.54166 7.43751 6.07208 7.43751 6.72916C7.43751 7.38625 6.96292 7.91666 6.37501 7.91666C5.78709 7.91666 5.31251 7.38625 5.31251 6.72916C5.31251 6.07208 5.78709 5.54166 6.37501 5.54166ZM11.3617 10.9329C12.1833 11.5979 12.75 12.4846 12.75 13.6562V15.0417H15.5833V13.6562C15.5833 12.0571 13.1042 11.1467 11.3617 10.9329ZM10.625 9.5C11.9921 9.5 13.1042 8.25708 13.1042 6.72916C13.1042 5.20124 11.9921 3.95833 10.625 3.95833C10.2425 3.95833 9.88834 4.06124 9.56251 4.23541C10.0088 4.93999 10.2708 5.80291 10.2708 6.72916C10.2708 7.65541 10.0088 8.51833 9.56251 9.22291C9.88834 9.39708 10.2425 9.5 10.625 9.5Z" fill="#737373"/>
</g>
<defs>
<clipPath id="clip0_3_4">
<rect width="17" height="19" fill="white"/>
</clipPath>
</defs>
</svg>
